<svg width="218" height="59" viewBox="0 0 218 59" fill="none" xmlns="http://www.w3.org/2000/svg">
<path d="M93 10.6208H98.6279C102.257 10.6208 104.952 11.069 106.719 11.9597C108.481 12.8506 109.936 14.2988 111.078 16.3101C112.22 18.3161 112.788 20.6607 112.788 23.3445C112.788 25.2529 112.469 27.0054 111.832 28.6033C111.194 30.2009 110.307 31.5286 109.183 32.5861C108.059 33.6379 106.841 34.3678 105.531 34.7757C104.221 35.178 101.949 35.379 98.7153 35.379H93V10.6208ZM97.7298 15.1724V30.7928H99.9323C102.106 30.7928 103.676 30.5456 104.656 30.0515C105.636 29.5572 106.435 28.7238 107.056 27.5572C107.676 26.3906 107.989 24.9538 107.989 23.2412C107.989 20.6149 107.247 18.5745 105.769 17.1263C104.436 15.8215 102.291 15.1724 99.3409 15.1724H97.7298ZM116.967 10.6208H121.697V35.379H116.967V10.6208ZM150.133 14.6664L146.788 17.9483C144.673 15.7299 142.204 14.6206 139.387 14.6206C136.935 14.6206 134.877 15.4251 133.22 17.0404C131.562 18.6552 130.733 20.6149 130.733 22.9252C130.733 25.3102 131.591 27.3333 133.312 28.994C135.034 30.6551 137.155 31.4828 139.676 31.4828C141.317 31.4828 142.702 31.1377 143.827 30.4539C144.951 29.7699 145.861 28.7009 146.551 27.2412H139.323V22.8275H151.877L151.912 23.8679C151.912 26.0343 151.344 28.0861 150.214 30.0286C149.078 31.9654 147.611 33.448 145.815 34.4711C144.012 35.4881 141.897 36 139.474 36C136.883 36 134.57 35.4423 132.536 34.3274C130.501 33.2067 128.896 31.6205 127.707 29.5572C126.525 27.4885 125.934 25.2643 125.934 22.8734C125.934 19.5975 127.029 16.7469 129.214 14.3275C131.805 11.4427 135.184 10 139.34 10C141.514 10 143.548 10.3964 145.444 11.1955C147.038 11.8676 148.603 13.0287 150.133 14.6664ZM155.906 10.6208H160.635V35.379H155.906V10.6208ZM163.551 10.6208H177.357V15.2757H172.801V35.379H167.968V15.2757H163.551V10.6208ZM188.225 10.6208H193.013L202.623 35.379H197.679L195.731 30.2758H185.495L183.501 35.379H178.557L188.225 10.6208ZM190.625 17.201L187.24 25.724H193.993L190.625 17.201ZM206.28 10.6208H211.01V30.8964H218V35.379H206.28V10.6208Z" fill="white"/>
<path d="M159.269 41H160.888L164.137 50H162.465L161.807 48.1447H158.346L157.672 50H156L159.269 41ZM160.08 43.3918L158.936 46.4904H161.219L160.08 43.3918ZM165.397 41H167.02V44.1128L169.305 41H171.243L168.294 45.0175L171.529 50H169.622L167.02 45.991V50H165.397V41ZM175.259 41H176.878L180.127 50H178.455L177.797 48.1447H174.336L173.662 50H171.99L175.259 41ZM176.07 43.3918L174.926 46.4904H177.209L176.07 43.3918ZM181.387 41H183.29C184.517 41 185.428 41.1629 186.026 41.4866C186.622 41.8104 187.113 42.337 187.5 43.0683C187.885 43.7973 188.078 44.6498 188.078 45.6252C188.078 46.319 187.97 46.9563 187.754 47.5368C187.539 48.1178 187.239 48.6004 186.859 48.9846C186.478 49.367 186.067 49.6323 185.624 49.7806C185.181 49.9269 184.413 50 183.32 50H181.387V41ZM182.986 42.6545V48.3327H183.731C184.466 48.3327 184.997 48.2431 185.328 48.0634C185.659 47.8839 185.93 47.5807 186.14 47.1565C186.349 46.7326 186.455 46.2105 186.455 45.5876C186.455 44.6328 186.204 43.8912 185.705 43.3651C185.254 42.8905 184.528 42.6545 183.531 42.6545H182.986ZM189.62 41H194.229V42.6798H191.219V44.2965H194.229V45.9513H191.219V48.3204H194.229V50H189.62V41ZM196.532 41H198.09L200.055 47.2778L202.031 41H203.585L205 50H203.45L202.548 44.3157L200.761 50H199.342L197.563 44.3157L196.644 50H195.076L196.532 41Z" fill="white"/>
<path d="M213.214 41H214.806L218 50H216.357L215.709 48.1447H212.306L211.643 50H210L213.214 41ZM214.012 43.3918L212.887 46.4904H215.131L214.012 43.3918Z" fill="white"/>
<path d="M205.836 41H208V50H206.563V42.6044H205L205.836 41Z" fill="white"/>
<path fill-rule="evenodd" clip-rule="evenodd" d="M16.7552 14.1227C24.507 15.5032 35.849 19.3843 34.4699 27.1459C33.0914 34.9073 19.5139 43.6096 11.7618 42.2291C4.01012 40.8484 -1.15608 33.4375 0.222707 25.676C1.60149 17.9148 9.00353 12.7418 16.7552 14.1227ZM20.8998 12.3873C24.3804 5.06304 31.8385 0 40.4789 0C52.4473 0 62.1501 9.71458 62.1501 21.6979C62.1501 28.1636 59.3251 33.969 54.8441 37.9441C51.02 41.3361 45.9896 43.3959 40.4789 43.3959C35.8559 43.3959 31.5717 41.9457 28.0536 39.476C32.8824 35.9668 36.7024 31.4407 37.4648 27.1504C38.8637 19.2756 29.521 14.6784 20.8998 12.3873ZM18.1618 11.6344C15.609 11.1476 13.3696 10.9384 10.7933 11.4655C9.91236 9.89163 9.74292 7.53367 10.5372 5.72379C11.6376 3.21563 15.1656 1.69097 17.7453 2.60921C19.5911 3.26726 20.9509 4.68933 21.4985 6.39325C20.1869 7.97737 19.0544 9.75616 18.1618 11.6344ZM82.1949 29.2475C79.5093 29.7256 75.5798 31.0703 76.0576 33.7595C76.5351 36.4485 81.2392 39.4634 83.9249 38.9851C86.6106 38.5068 88.4006 35.9391 87.9228 33.2501C87.4451 30.5611 84.8806 28.7691 82.1949 29.2475ZM80.1263 21.5236C79.4476 24.9744 77.0394 27.6502 73.9479 28.5894C73.3043 28.7848 72.6307 28.8896 71.9384 28.9256C69.8618 27.4631 67.4864 26.3976 64.9222 25.8381C65.1023 24.6429 65.1963 23.4193 65.1963 22.1738C65.1963 19.5231 64.7719 16.9722 63.9899 14.5832C64.212 14.2626 64.4536 13.9604 64.717 13.6804C66.9325 11.3253 70.3974 10.3563 73.7858 11.2826C77.8327 12.3888 80.9363 17.4014 80.1263 21.5236ZM45.7279 45.0187C46.3843 52.8465 52.9368 58.9952 60.9251 58.9952C69.3485 58.9952 76.1775 52.158 76.1775 43.724C76.1775 36.4058 71.0359 30.2909 64.1723 28.8007C61.6773 37.2054 54.5353 43.6069 45.7279 45.0187Z" fill="white"/>
</svg>
