<svg width="29" height="29" viewBox="0 0 29 29" fill="none" xmlns="http://www.w3.org/2000/svg">
<path d="M6.73088 9.52913C6.38559 7.25263 7.99328 5.20269 10.4492 4.4505C10.8853 4.31704 11.3558 4.35497 11.7649 4.55655C12.1739 4.75813 12.4907 5.10818 12.6505 5.53528L13.438 7.63779C13.5646 7.97599 13.5874 8.34431 13.5032 8.6955C13.4191 9.04669 13.232 9.36475 12.9659 9.60888L10.6232 11.7576C10.5077 11.8637 10.4216 11.998 10.3733 12.1473C10.325 12.2965 10.3162 12.4558 10.3477 12.6095L10.3686 12.7037L10.4266 12.9403C10.4782 13.1396 10.5562 13.4206 10.6658 13.7559C10.8833 14.422 11.2304 15.3173 11.747 16.2118C12.2635 17.1063 12.8653 17.8548 13.3329 18.3759C13.5765 18.6473 13.831 18.9085 14.096 19.1589L14.1685 19.226C14.2856 19.3298 14.4277 19.4014 14.5808 19.434C14.7339 19.4666 14.8928 19.4589 15.0421 19.4118L18.0744 18.4575C18.4189 18.3492 18.788 18.3463 19.1341 18.4492C19.4803 18.552 19.7879 18.7559 20.0174 19.0348L21.452 20.7766C22.0501 21.5016 21.9794 22.5673 21.2916 23.2081C19.412 24.9598 16.8274 25.3196 15.0294 23.8733C12.8255 22.0957 10.9676 19.9278 9.54841 17.4778C8.11749 15.0295 7.16158 12.3321 6.73088 9.52913ZM12.2463 12.7282L14.1911 10.9447C14.7233 10.4564 15.0976 9.82032 15.2658 9.11793C15.4341 8.41554 15.3887 7.67891 15.1354 7.0025L14.347 4.9C14.0253 4.04099 13.3882 3.33699 12.5654 2.9315C11.7427 2.52602 10.7962 2.44957 9.91906 2.71775C6.86953 3.65119 4.42084 6.38535 4.93922 9.801C5.40412 12.8297 6.43627 15.7435 7.9815 18.3895C9.51222 21.0316 11.5161 23.3694 13.893 25.2861C16.5891 27.452 20.1905 26.7134 22.5277 24.5339C23.1965 23.9106 23.6023 23.0557 23.6624 22.1435C23.7225 21.2312 23.4324 20.3304 22.8512 19.6248L21.4167 17.8829C20.9576 17.3251 20.3423 16.9171 19.6497 16.7114C18.9572 16.5057 18.2189 16.5116 17.5298 16.7284L15.0131 17.5204C14.9004 17.4046 14.7902 17.2864 14.6823 17.1661C14.1651 16.5939 13.7075 15.9705 13.3166 15.3056C12.936 14.6345 12.6248 13.9263 12.3877 13.1922C12.3374 13.0385 12.2903 12.8838 12.2463 12.7282Z" fill="white"/>
</svg>
