<svg width="18" height="18" viewBox="0 0 18 18" fill="none" xmlns="http://www.w3.org/2000/svg">
<path d="M9.70227 14.0015L17.7106 5.98967C17.8959 5.80437 17.998 5.557 17.998 5.29323C17.998 5.02947 17.8959 4.7821 17.7106 4.59678L17.1209 4.00674C16.7367 3.62279 16.1123 3.62278 15.7287 4.0067L9.0038 10.7344L2.27147 3.99891C2.0861 3.81359 1.83899 3.71127 1.57549 3.71127C1.3117 3.71126 1.06458 3.81357 0.879066 3.99887L0.289595 4.58889C0.104223 4.77434 0.00209993 5.02156 0.00209992 5.28533C0.00209991 5.54909 0.104223 5.79646 0.289595 5.98178L8.30519 14.0015C8.49114 14.1872 8.73943 14.2893 9.00337 14.2887C9.26833 14.2893 9.51646 14.1873 9.70227 14.0015Z" fill="#fff"/>
</svg>
