<svg width="40" height="40" viewBox="0 0 40 40" fill="none" xmlns="http://www.w3.org/2000/svg">
<path d="M19.9999 11.9885C15.5664 11.9885 11.9882 15.5666 11.9882 20.0002C11.9882 24.4338 15.5664 28.0119 19.9999 28.0119C24.4335 28.0119 28.0117 24.4338 28.0117 20.0002C28.0117 15.5666 24.4335 11.9885 19.9999 11.9885ZM19.9999 25.2072C17.1328 25.2072 14.7929 22.8674 14.7929 20.0002C14.7929 17.133 17.1328 14.7932 19.9999 14.7932C22.8671 14.7932 25.207 17.133 25.207 20.0002C25.207 22.8674 22.8671 25.2072 19.9999 25.2072ZM28.3398 9.79315C27.3046 9.79315 26.4687 10.6291 26.4687 11.6642C26.4687 12.6994 27.3046 13.5353 28.3398 13.5353C29.375 13.5353 30.2109 12.7033 30.2109 11.6642C30.2112 11.4184 30.163 11.175 30.0691 10.9478C29.9752 10.7207 29.8374 10.5143 29.6635 10.3405C29.4897 10.1667 29.2834 10.0289 29.0562 9.93495C28.8291 9.84103 28.5856 9.79284 28.3398 9.79315ZM35.6171 20.0002C35.6171 17.8439 35.6367 15.7072 35.5156 13.5549C35.3945 11.0549 34.8242 8.83612 32.9961 7.008C31.164 5.17597 28.9492 4.60956 26.4492 4.48847C24.2929 4.36737 22.1562 4.3869 20.0039 4.3869C17.8476 4.3869 15.7109 4.36737 13.5585 4.48847C11.0585 4.60956 8.83979 5.17987 7.01166 7.008C5.17963 8.84003 4.61322 11.0549 4.49213 13.5549C4.37103 15.7111 4.39057 17.8478 4.39057 20.0002C4.39057 22.1525 4.37103 24.2931 4.49213 26.4455C4.61322 28.9455 5.18354 31.1642 7.01166 32.9924C8.84369 34.8244 11.0585 35.3908 13.5585 35.5119C15.7148 35.633 17.8515 35.6135 20.0039 35.6135C22.1601 35.6135 24.2968 35.633 26.4492 35.5119C28.9492 35.3908 31.1679 34.8205 32.9961 32.9924C34.8281 31.1603 35.3945 28.9455 35.5156 26.4455C35.6406 24.2931 35.6171 22.1564 35.6171 20.0002ZM32.1796 29.2111C31.8945 29.9221 31.5507 30.4533 31 31.0002C30.4492 31.551 29.9218 31.8947 29.2109 32.1799C27.1562 32.9963 22.2773 32.8127 19.9999 32.8127C17.7226 32.8127 12.8398 32.9963 10.7851 32.1838C10.0742 31.8986 9.54291 31.5549 8.99604 31.0041C8.44526 30.4533 8.10151 29.926 7.81635 29.215C7.00385 27.1564 7.18744 22.2775 7.18744 20.0002C7.18744 17.7228 7.00385 12.84 7.81635 10.7853C8.10151 10.0744 8.44526 9.54315 8.99604 8.99628C9.54682 8.4494 10.0742 8.10175 10.7851 7.81659C12.8398 7.00409 17.7226 7.18768 19.9999 7.18768C22.2773 7.18768 27.1601 7.00409 29.2148 7.81659C29.9257 8.10175 30.457 8.4455 31.0039 8.99628C31.5546 9.54706 31.8984 10.0744 32.1836 10.7853C32.9961 12.84 32.8125 17.7228 32.8125 20.0002C32.8125 22.2775 32.9961 27.1564 32.1796 29.2111Z" fill="white"/>
</svg>
