<svg width="40" height="40" viewBox="0 0 40 40" fill="none" xmlns="http://www.w3.org/2000/svg">
<path d="M32.5875 4.99518C32.1863 5.02437 31.7924 5.11851 31.4213 5.27393H31.4163C31.06 5.41518 29.3663 6.12768 26.7913 7.20768L17.5638 11.0939C10.9425 13.8814 4.43378 16.6264 4.43378 16.6264L4.51128 16.5964C4.51128 16.5964 4.06253 16.7439 3.59378 17.0652C3.30419 17.2495 3.05499 17.4906 2.86128 17.7739C2.63128 18.1114 2.44628 18.6277 2.51503 19.1614C2.62753 20.0639 3.21253 20.6052 3.63253 20.9039C4.05753 21.2064 4.46253 21.3477 4.46253 21.3477H4.47253L10.5763 23.4039C10.85 24.2827 12.4363 29.4977 12.8175 30.6989C13.0425 31.4164 13.2613 31.8652 13.535 32.2077C13.6675 32.3827 13.8225 32.5289 14.0088 32.6464C14.1056 32.7027 14.2088 32.7472 14.3163 32.7789L14.2538 32.7639C14.2725 32.7689 14.2875 32.7839 14.3013 32.7889C14.3513 32.8027 14.385 32.8077 14.4488 32.8177C15.415 33.1102 16.1913 32.5102 16.1913 32.5102L16.235 32.4752L19.8388 29.1939L25.8788 33.8277L26.0163 33.8864C27.275 34.4389 28.55 34.1314 29.2238 33.5889C29.9025 33.0427 30.1663 32.3439 30.1663 32.3439L30.21 32.2314L34.8775 8.32018C35.01 7.73018 35.0438 7.17768 34.8975 6.64143C34.7467 6.09871 34.3985 5.63193 33.9213 5.33268C33.5206 5.08907 33.0559 4.97149 32.5875 4.99518ZM32.4613 7.55768C32.4563 7.63643 32.4713 7.62768 32.4363 7.77893V7.79268L27.8125 31.4552C27.7925 31.4889 27.7588 31.5627 27.6663 31.6364C27.5688 31.7139 27.4913 31.7627 27.085 31.6014L19.6975 25.9377L15.235 30.0052L16.1725 24.0177L28.2425 12.7677C28.74 12.3052 28.5738 12.2077 28.5738 12.2077C28.6088 11.6402 27.8225 12.0414 27.8225 12.0414L12.6025 21.4702L12.5975 21.4452L5.30253 18.9889V18.9839L5.28378 18.9802C5.29657 18.9759 5.30909 18.9709 5.32128 18.9652L5.36128 18.9452L5.40003 18.9314C5.40003 18.9314 11.9138 16.1864 18.535 13.3989C21.85 12.0027 25.19 10.5964 27.7588 9.51143C29.2822 8.87018 30.8072 8.23268 32.3338 7.59893C32.4363 7.55893 32.3875 7.55893 32.4613 7.55893V7.55768Z" fill="white"/>
</svg>
